<svg width="192" height="192" viewBox="0 0 192 192" fill="none" xmlns="http://www.w3.org/2000/svg">
<rect width="192" height="192" fill="white"/>
<path d="M18.3051 131.803L20.5313 126.483C18.7585 126.082 17.8067 125.786 17.8067 125.786C16.4424 125.662 6.36914 126.644 6.36914 126.644C6.36914 126.644 7.11667 139.624 7.36584 140.831C7.36584 140.831 15.2373 140.43 21.5811 140.289L18.3051 131.803Z" fill="black"/>
<path d="M146.157 19.1731L145.315 28.6217L162.717 32.0372L162.574 31.6363L163.57 17.4734L146.157 19.1731Z" fill="black"/>
<path d="M17.8027 125.786C17.8027 125.786 61.102 139.54 111.346 103.862C161.589 68.184 145.172 30.3495 145.172 30.3495L146.169 19.1731L163.57 17.4734L162.574 31.6603C162.574 31.6603 197.397 127.954 150.135 150.319C133.224 159.347 112.493 169.645 79.496 162.786C67.2293 160.185 59.9419 148.447 29.2402 140.402C27.1202 139.844 7.35364 140.831 7.35364 140.831C7.10446 139.628 6.35693 126.644 6.35693 126.644C6.35693 126.644 16.4424 125.661 17.8027 125.786Z" fill="black" stroke="black" stroke-width="5" stroke-miterlimit="10"/>
</svg>
